<mxfile host="Electron" modified="2020-12-04T09:56:37.941Z" agent="5.0 (X11; Linux x86_64) AppleWebKit/537.36 (KHTML, like Gecko) draw.io/13.3.9 Chrome/83.0.4103.119 Electron/9.0.5 Safari/537.36" etag="VxJRxiLAE832NYPGfZeB" compressed="false" version="13.3.9" type="device">
  <diagram id="BlHnVB8x3UeXf5TgpBwS" name="Page-1">
    <mxGraphModel dx="670" dy="1510" grid="1" gridSize="10" guides="0" tooltips="1" connect="1" arrows="1" fold="1" page="1" pageScale="1" pageWidth="850" pageHeight="1100" math="0" shadow="0">
      <root>
        <mxCell id="0" />
        <mxCell id="1" parent="0" />
        <mxCell id="ivFnE20wJ8bzk58zQ-_T-82" style="edgeStyle=orthogonalEdgeStyle;rounded=0;orthogonalLoop=1;jettySize=auto;html=1;strokeWidth=2;fillColor=#f5f5f5;strokeColor=#666666;" parent="1" source="ivFnE20wJ8bzk58zQ-_T-55" target="ivFnE20wJ8bzk58zQ-_T-77" edge="1">
          <mxGeometry relative="1" as="geometry">
            <Array as="points">
              <mxPoint x="750" y="290" />
              <mxPoint x="750" y="1590" />
              <mxPoint x="360" y="1590" />
            </Array>
          </mxGeometry>
        </mxCell>
        <mxCell id="ivFnE20wJ8bzk58zQ-_T-36" style="edgeStyle=orthogonalEdgeStyle;rounded=0;orthogonalLoop=1;jettySize=auto;html=1;strokeWidth=2;fillColor=#d5e8d4;strokeColor=#82b366;" parent="1" source="ivFnE20wJ8bzk58zQ-_T-12" target="ivFnE20wJ8bzk58zQ-_T-34" edge="1">
          <mxGeometry relative="1" as="geometry">
            <Array as="points">
              <mxPoint x="420" y="310" />
              <mxPoint x="690" y="310" />
            </Array>
          </mxGeometry>
        </mxCell>
        <mxCell id="z4Ap7TY83xOOOGqfNmZQ-1" value="&lt;b&gt;PrintIt&lt;/b&gt;" style="rounded=0;whiteSpace=wrap;html=1;" parent="1" vertex="1">
          <mxGeometry x="120" y="-400" width="40" height="20" as="geometry" />
        </mxCell>
        <mxCell id="z4Ap7TY83xOOOGqfNmZQ-13" style="edgeStyle=orthogonalEdgeStyle;rounded=0;orthogonalLoop=1;jettySize=auto;html=1;fillColor=#f5f5f5;strokeColor=#666666;strokeWidth=2;" parent="1" source="z4Ap7TY83xOOOGqfNmZQ-2" target="z4Ap7TY83xOOOGqfNmZQ-12" edge="1">
          <mxGeometry relative="1" as="geometry">
            <Array as="points">
              <mxPoint x="240" y="-370" />
              <mxPoint x="300" y="-370" />
            </Array>
          </mxGeometry>
        </mxCell>
        <mxCell id="z4Ap7TY83xOOOGqfNmZQ-2" value="PRINT_DIALOG_TYPE type" style="rounded=0;whiteSpace=wrap;html=1;fillColor=#f5f5f5;strokeColor=#666666;fontColor=#333333;" parent="1" vertex="1">
          <mxGeometry x="160" y="-400" width="160" height="20" as="geometry" />
        </mxCell>
        <mxCell id="z4Ap7TY83xOOOGqfNmZQ-3" value="&lt;b&gt;NPCommand&lt;/b&gt;" style="rounded=0;whiteSpace=wrap;html=1;" parent="1" vertex="1">
          <mxGeometry x="80" y="-440" width="80" height="20" as="geometry" />
        </mxCell>
        <mxCell id="z4Ap7TY83xOOOGqfNmZQ-4" value="&lt;div&gt;&lt;font color=&quot;#999999&quot;&gt;// Notepad command proc - called whenever notepad gets WM_COMMAND&amp;nbsp;&lt;span&gt;message.&amp;nbsp; wParam passed as cmd&lt;/span&gt;&lt;/font&gt;&lt;/div&gt;" style="text;html=1;align=left;verticalAlign=middle;resizable=0;points=[];autosize=1;" parent="1" vertex="1">
          <mxGeometry x="80" y="-480" width="610" height="20" as="geometry" />
        </mxCell>
        <mxCell id="z4Ap7TY83xOOOGqfNmZQ-5" value="shell/osshell/accesory/notepad/notepad.c: 568~992" style="text;html=1;align=left;verticalAlign=middle;resizable=0;points=[];autosize=1;" parent="1" vertex="1">
          <mxGeometry x="80" y="-460" width="290" height="20" as="geometry" />
        </mxCell>
        <mxCell id="z4Ap7TY83xOOOGqfNmZQ-7" value="..." style="rounded=0;whiteSpace=wrap;html=1;fillColor=#f5f5f5;strokeColor=#666666;fontColor=#333333;" parent="1" vertex="1">
          <mxGeometry x="160" y="-440" width="40" height="20" as="geometry" />
        </mxCell>
        <mxCell id="z4Ap7TY83xOOOGqfNmZQ-8" value="UseDialog" style="endArrow=classic;html=1;fillColor=#f5f5f5;strokeColor=#666666;strokeWidth=2;" parent="1" target="z4Ap7TY83xOOOGqfNmZQ-2" edge="1">
          <mxGeometry x="-1" width="50" height="50" relative="1" as="geometry">
            <mxPoint x="240" y="-420" as="sourcePoint" />
            <mxPoint x="360" y="-370" as="targetPoint" />
            <mxPoint as="offset" />
          </mxGeometry>
        </mxCell>
        <mxCell id="z4Ap7TY83xOOOGqfNmZQ-9" value="shell/osshell/accesory/notepad/npprint.c: 1211~1259" style="text;html=1;align=left;verticalAlign=middle;resizable=0;points=[];autosize=1;" parent="1" vertex="1">
          <mxGeometry x="120" y="-420" width="290" height="20" as="geometry" />
        </mxCell>
        <mxCell id="z4Ap7TY83xOOOGqfNmZQ-10" value="&lt;b&gt;NpPrint&lt;/b&gt;" style="rounded=0;whiteSpace=wrap;html=1;" parent="1" vertex="1">
          <mxGeometry x="160" y="-360" width="60" height="20" as="geometry" />
        </mxCell>
        <mxCell id="z4Ap7TY83xOOOGqfNmZQ-12" value="PRINT_DIALOG_TYPE type" style="rounded=0;whiteSpace=wrap;html=1;fillColor=#f5f5f5;strokeColor=#666666;fontColor=#333333;" parent="1" vertex="1">
          <mxGeometry x="220" y="-360" width="160" height="20" as="geometry" />
        </mxCell>
        <mxCell id="z4Ap7TY83xOOOGqfNmZQ-14" value="shell/osshell/accesory/notepad/npprint.c: 362~389" style="text;html=1;align=left;verticalAlign=middle;resizable=0;points=[];autosize=1;" parent="1" vertex="1">
          <mxGeometry x="160" y="-380" width="280" height="20" as="geometry" />
        </mxCell>
        <mxCell id="ivFnE20wJ8bzk58zQ-_T-23" style="edgeStyle=orthogonalEdgeStyle;rounded=0;orthogonalLoop=1;jettySize=auto;html=1;strokeWidth=2;fillColor=#dae8fc;strokeColor=#6c8ebf;" parent="1" source="ivFnE20wJ8bzk58zQ-_T-65" target="ivFnE20wJ8bzk58zQ-_T-18" edge="1">
          <mxGeometry relative="1" as="geometry">
            <Array as="points">
              <mxPoint x="580" y="1320" />
              <mxPoint x="340" y="1320" />
            </Array>
          </mxGeometry>
        </mxCell>
        <mxCell id="ivFnE20wJ8bzk58zQ-_T-1" value="HDC &lt;b&gt;GetPrinterDCviaDialog&lt;/b&gt;" style="rounded=0;whiteSpace=wrap;html=1;" parent="1" vertex="1">
          <mxGeometry x="200" y="-320" width="180" height="20" as="geometry" />
        </mxCell>
        <mxCell id="ivFnE20wJ8bzk58zQ-_T-3" value="shell/osshell/accesory/notepad/npprint.c: 270~359" style="text;html=1;align=left;verticalAlign=middle;resizable=0;points=[];autosize=1;" parent="1" vertex="1">
          <mxGeometry x="200" y="-340" width="280" height="20" as="geometry" />
        </mxCell>
        <mxCell id="ivFnE20wJ8bzk58zQ-_T-4" value="&lt;b&gt;DrvQueryDriverInfo&lt;/b&gt;" style="rounded=0;whiteSpace=wrap;html=1;" parent="1" vertex="1">
          <mxGeometry x="40" y="1740" width="120" height="20" as="geometry" />
        </mxCell>
        <mxCell id="ivFnE20wJ8bzk58zQ-_T-6" value="&lt;b&gt;PrintDlgEx&lt;/b&gt;" style="rounded=0;whiteSpace=wrap;html=1;" parent="1" vertex="1">
          <mxGeometry x="240" y="200" width="80" height="20" as="geometry" />
        </mxCell>
        <mxCell id="ivFnE20wJ8bzk58zQ-_T-29" style="edgeStyle=orthogonalEdgeStyle;rounded=0;orthogonalLoop=1;jettySize=auto;html=1;strokeWidth=2;fillColor=#d5e8d4;strokeColor=#82b366;" parent="1" source="ivFnE20wJ8bzk58zQ-_T-9" target="ivFnE20wJ8bzk58zQ-_T-12" edge="1">
          <mxGeometry relative="1" as="geometry">
            <Array as="points">
              <mxPoint x="390" y="270" />
              <mxPoint x="420" y="270" />
            </Array>
          </mxGeometry>
        </mxCell>
        <mxCell id="ivFnE20wJ8bzk58zQ-_T-9" value="LPPRINTDLGEX pPD" style="rounded=0;whiteSpace=wrap;html=1;fillColor=#d5e8d4;strokeColor=#82b366;" parent="1" vertex="1">
          <mxGeometry x="320" y="200" width="140" height="20" as="geometry" />
        </mxCell>
        <mxCell id="ivFnE20wJ8bzk58zQ-_T-10" value="shell/comdlg32/printnew.cpp: 187~201" style="text;html=1;align=left;verticalAlign=middle;resizable=0;points=[];autosize=1;" parent="1" vertex="1">
          <mxGeometry x="240" y="180" width="220" height="20" as="geometry" />
        </mxCell>
        <mxCell id="ivFnE20wJ8bzk58zQ-_T-11" value="&lt;b&gt;PrintDlgExX&lt;/b&gt;" style="rounded=0;whiteSpace=wrap;html=1;" parent="1" vertex="1">
          <mxGeometry x="280" y="280" width="80" height="20" as="geometry" />
        </mxCell>
        <mxCell id="ivFnE20wJ8bzk58zQ-_T-26" style="edgeStyle=orthogonalEdgeStyle;rounded=0;orthogonalLoop=1;jettySize=auto;html=1;strokeWidth=2;fillColor=#ffe6cc;strokeColor=#d79b00;" parent="1" source="ivFnE20wJ8bzk58zQ-_T-12" target="ivFnE20wJ8bzk58zQ-_T-25" edge="1">
          <mxGeometry relative="1" as="geometry">
            <Array as="points">
              <mxPoint x="420" y="310" />
              <mxPoint x="460" y="310" />
            </Array>
          </mxGeometry>
        </mxCell>
        <mxCell id="ivFnE20wJ8bzk58zQ-_T-35" style="edgeStyle=orthogonalEdgeStyle;rounded=0;orthogonalLoop=1;jettySize=auto;html=1;strokeWidth=2;fillColor=#ffe6cc;strokeColor=#d79b00;" parent="1" source="ivFnE20wJ8bzk58zQ-_T-12" target="ivFnE20wJ8bzk58zQ-_T-33" edge="1">
          <mxGeometry relative="1" as="geometry">
            <Array as="points">
              <mxPoint x="420" y="310" />
              <mxPoint x="560" y="310" />
            </Array>
          </mxGeometry>
        </mxCell>
        <mxCell id="ivFnE20wJ8bzk58zQ-_T-12" value="PPRINTINFOEX pPI" style="rounded=0;whiteSpace=wrap;html=1;fillColor=#ffe6cc;strokeColor=#d79b00;" parent="1" vertex="1">
          <mxGeometry x="360" y="280" width="120" height="20" as="geometry" />
        </mxCell>
        <mxCell id="ivFnE20wJ8bzk58zQ-_T-13" value="srv03rtm/shell/comdlg32/printnew.cpp: 181~555" style="text;html=1;align=left;verticalAlign=middle;resizable=0;points=[];autosize=1;" parent="1" vertex="1">
          <mxGeometry x="280" y="260" width="270" height="20" as="geometry" />
        </mxCell>
        <mxCell id="ivFnE20wJ8bzk58zQ-_T-14" value="&lt;div&gt;&lt;font color=&quot;#999999&quot;&gt;// Do minial work when requesting a default printer&lt;/font&gt;&lt;/div&gt;" style="text;html=1;align=left;verticalAlign=middle;resizable=0;points=[];autosize=1;" parent="1" vertex="1">
          <mxGeometry x="320" y="300" width="280" height="20" as="geometry" />
        </mxCell>
        <mxCell id="ivFnE20wJ8bzk58zQ-_T-15" value="&lt;div&gt;&lt;font color=&quot;#999999&quot;&gt;// Load the necessary libraries&lt;/font&gt;&lt;/div&gt;" style="text;html=1;align=left;verticalAlign=middle;resizable=0;points=[];autosize=1;" parent="1" vertex="1">
          <mxGeometry x="320" y="340" width="180" height="20" as="geometry" />
        </mxCell>
        <mxCell id="ivFnE20wJ8bzk58zQ-_T-16" value="&lt;div&gt;&lt;font color=&quot;#999999&quot;&gt;// Load the necessary icons&lt;/font&gt;&lt;/div&gt;" style="text;html=1;align=left;verticalAlign=middle;resizable=0;points=[];autosize=1;" parent="1" vertex="1">
          <mxGeometry x="320" y="640" width="160" height="20" as="geometry" />
        </mxCell>
        <mxCell id="ivFnE20wJ8bzk58zQ-_T-17" value="&lt;b&gt;NpPrintGivenDC&lt;/b&gt;" style="rounded=0;whiteSpace=wrap;html=1;" parent="1" vertex="1">
          <mxGeometry x="200" y="1340" width="100" height="20" as="geometry" />
        </mxCell>
        <mxCell id="ivFnE20wJ8bzk58zQ-_T-18" value="HDC hPrintDC" style="rounded=0;whiteSpace=wrap;html=1;fillColor=#dae8fc;strokeColor=#6c8ebf;" parent="1" vertex="1">
          <mxGeometry x="300" y="1340" width="80" height="20" as="geometry" />
        </mxCell>
        <mxCell id="ivFnE20wJ8bzk58zQ-_T-20" value="窗口：选择打印机" style="endArrow=none;html=1;strokeWidth=2;fillColor=#f5f5f5;strokeColor=#666666;dashed=1;" parent="1" edge="1">
          <mxGeometry width="50" height="50" relative="1" as="geometry">
            <mxPoint x="250" y="1312" as="sourcePoint" />
            <mxPoint x="250" y="230" as="targetPoint" />
            <Array as="points" />
          </mxGeometry>
        </mxCell>
        <mxCell id="ivFnE20wJ8bzk58zQ-_T-21" value="&lt;div&gt;&lt;font color=&quot;#999999&quot;&gt;不知道如何调用到的&lt;/font&gt;&lt;/div&gt;" style="text;html=1;align=left;verticalAlign=middle;resizable=0;points=[];autosize=1;" parent="1" vertex="1">
          <mxGeometry x="40" y="1720" width="120" height="20" as="geometry" />
        </mxCell>
        <mxCell id="ivFnE20wJ8bzk58zQ-_T-22" value="shell/osshell/accesory/notepad/npprint.c: 392~813" style="text;html=1;align=left;verticalAlign=middle;resizable=0;points=[];autosize=1;" parent="1" vertex="1">
          <mxGeometry x="200" y="1320" width="280" height="20" as="geometry" />
        </mxCell>
        <mxCell id="ivFnE20wJ8bzk58zQ-_T-24" value="&lt;b&gt;Print_ReturnDefault&lt;/b&gt;" style="rounded=0;whiteSpace=wrap;html=1;" parent="1" vertex="1">
          <mxGeometry x="320" y="320" width="120" height="20" as="geometry" />
        </mxCell>
        <mxCell id="ivFnE20wJ8bzk58zQ-_T-25" value="" style="rounded=0;whiteSpace=wrap;html=1;fillColor=#f5f5f5;strokeColor=#666666;fontColor=#333333;" parent="1" vertex="1">
          <mxGeometry x="440" y="320" width="40" height="20" as="geometry" />
        </mxCell>
        <mxCell id="ivFnE20wJ8bzk58zQ-_T-27" value="&lt;b&gt;Print_LoadLibraries&lt;/b&gt;" style="rounded=0;whiteSpace=wrap;html=1;" parent="1" vertex="1">
          <mxGeometry x="320" y="380" width="120" height="20" as="geometry" />
        </mxCell>
        <mxCell id="ivFnE20wJ8bzk58zQ-_T-28" value="shell/comdlg32/printnew.cpp: 719~757" style="text;html=1;align=left;verticalAlign=middle;resizable=0;points=[];autosize=1;" parent="1" vertex="1">
          <mxGeometry x="320" y="360" width="220" height="20" as="geometry" />
        </mxCell>
        <mxCell id="ivFnE20wJ8bzk58zQ-_T-30" value="&lt;b&gt;Print_InvokePropertySheets&lt;/b&gt;" style="rounded=0;whiteSpace=wrap;html=1;" parent="1" vertex="1">
          <mxGeometry x="320" y="720" width="180" height="20" as="geometry" />
        </mxCell>
        <mxCell id="ivFnE20wJ8bzk58zQ-_T-31" value="&lt;div&gt;&lt;font color=&quot;#999999&quot;&gt;// Bring up the dialog&lt;/font&gt;&lt;/div&gt;" style="text;html=1;align=left;verticalAlign=middle;resizable=0;points=[];autosize=1;" parent="1" vertex="1">
          <mxGeometry x="320" y="680" width="130" height="20" as="geometry" />
        </mxCell>
        <mxCell id="ivFnE20wJ8bzk58zQ-_T-32" value="shell/comdlg32/printnew.cpp: 816~936" style="text;html=1;align=left;verticalAlign=middle;resizable=0;points=[];autosize=1;" parent="1" vertex="1">
          <mxGeometry x="320" y="700" width="220" height="20" as="geometry" />
        </mxCell>
        <mxCell id="ivFnE20wJ8bzk58zQ-_T-46" style="edgeStyle=orthogonalEdgeStyle;rounded=0;orthogonalLoop=1;jettySize=auto;html=1;strokeWidth=2;fillColor=#f5f5f5;strokeColor=#666666;" parent="1" source="ivFnE20wJ8bzk58zQ-_T-33" target="ivFnE20wJ8bzk58zQ-_T-57" edge="1">
          <mxGeometry relative="1" as="geometry">
            <Array as="points">
              <mxPoint x="560" y="810" />
              <mxPoint x="700" y="810" />
            </Array>
          </mxGeometry>
        </mxCell>
        <mxCell id="ivFnE20wJ8bzk58zQ-_T-33" value="PPRINTINFOEX pPI" style="rounded=0;whiteSpace=wrap;html=1;fillColor=#ffe6cc;strokeColor=#d79b00;" parent="1" vertex="1">
          <mxGeometry x="500" y="720" width="120" height="20" as="geometry" />
        </mxCell>
        <mxCell id="ivFnE20wJ8bzk58zQ-_T-34" value="LPPRINTDLGEX pPD" style="rounded=0;whiteSpace=wrap;html=1;fillColor=#d5e8d4;strokeColor=#82b366;" parent="1" vertex="1">
          <mxGeometry x="620" y="720" width="140" height="20" as="geometry" />
        </mxCell>
        <mxCell id="ivFnE20wJ8bzk58zQ-_T-37" value="HPROPSHEETPAGE&lt;br&gt;&lt;b&gt;CreatePropertySheetPage&lt;/b&gt;" style="rounded=0;whiteSpace=wrap;html=1;" parent="1" vertex="1">
          <mxGeometry x="360" y="860" width="160" height="30" as="geometry" />
        </mxCell>
        <mxCell id="ivFnE20wJ8bzk58zQ-_T-38" value="&lt;b&gt;PropertySheet&lt;/b&gt;" style="rounded=0;whiteSpace=wrap;html=1;" parent="1" vertex="1">
          <mxGeometry x="360" y="940" width="100" height="20" as="geometry" />
        </mxCell>
        <mxCell id="ivFnE20wJ8bzk58zQ-_T-47" value="psh.phpage[0]" style="edgeStyle=orthogonalEdgeStyle;rounded=0;orthogonalLoop=1;jettySize=auto;html=1;strokeWidth=2;fillColor=#f5f5f5;strokeColor=#666666;" parent="1" source="ivFnE20wJ8bzk58zQ-_T-39" target="ivFnE20wJ8bzk58zQ-_T-41" edge="1">
          <mxGeometry relative="1" as="geometry">
            <Array as="points">
              <mxPoint x="700" y="875" />
              <mxPoint x="700" y="920" />
              <mxPoint x="550" y="920" />
            </Array>
          </mxGeometry>
        </mxCell>
        <mxCell id="ivFnE20wJ8bzk58zQ-_T-39" value="LPCPROPSHEETPAGE constPropSheetPagePointer" style="rounded=0;whiteSpace=wrap;html=1;fillColor=#f8cecc;strokeColor=#b85450;" parent="1" vertex="1">
          <mxGeometry x="520" y="860" width="160" height="30" as="geometry" />
        </mxCell>
        <mxCell id="ivFnE20wJ8bzk58zQ-_T-40" value="shell/comctl32/v6/prpage.c: 775~909" style="text;html=1;align=left;verticalAlign=middle;resizable=0;points=[];autosize=1;" parent="1" vertex="1">
          <mxGeometry x="360" y="840" width="210" height="20" as="geometry" />
        </mxCell>
        <mxCell id="ivFnE20wJ8bzk58zQ-_T-66" style="edgeStyle=orthogonalEdgeStyle;rounded=0;orthogonalLoop=1;jettySize=auto;html=1;strokeWidth=2;fillColor=#f5f5f5;strokeColor=#666666;" parent="1" source="ivFnE20wJ8bzk58zQ-_T-41" target="ivFnE20wJ8bzk58zQ-_T-65" edge="1">
          <mxGeometry relative="1" as="geometry">
            <Array as="points">
              <mxPoint x="550" y="970" />
              <mxPoint x="580" y="970" />
            </Array>
          </mxGeometry>
        </mxCell>
        <mxCell id="ivFnE20wJ8bzk58zQ-_T-41" value="LPCPROPSHEETHEADER ppsh" style="rounded=0;whiteSpace=wrap;html=1;fillColor=#f5f5f5;strokeColor=#666666;fontColor=#333333;" parent="1" vertex="1">
          <mxGeometry x="460" y="940" width="180" height="20" as="geometry" />
        </mxCell>
        <mxCell id="ivFnE20wJ8bzk58zQ-_T-42" value="shell/comctl32/v6/prsht.c: 5141~5265" style="text;html=1;align=left;verticalAlign=middle;resizable=0;points=[];autosize=1;" parent="1" vertex="1">
          <mxGeometry x="360" y="920" width="210" height="20" as="geometry" />
        </mxCell>
        <mxCell id="ivFnE20wJ8bzk58zQ-_T-43" value="&lt;font color=&quot;#999999&quot;&gt;// This function displays the property sheet described by ppsh.&lt;/font&gt;" style="text;html=1;align=left;verticalAlign=middle;resizable=0;points=[];autosize=1;" parent="1" vertex="1">
          <mxGeometry x="360" y="900" width="340" height="20" as="geometry" />
        </mxCell>
        <mxCell id="ivFnE20wJ8bzk58zQ-_T-48" value="&lt;div&gt;&lt;font color=&quot;#999999&quot;&gt;/// Load printui.dll&lt;/font&gt;&lt;/div&gt;" style="text;html=1;align=left;verticalAlign=middle;resizable=0;points=[];autosize=1;" parent="1" vertex="1">
          <mxGeometry x="440" y="380" width="110" height="20" as="geometry" />
        </mxCell>
        <mxCell id="ivFnE20wJ8bzk58zQ-_T-49" value="&lt;b&gt;bPrinterSetup&lt;/b&gt;" style="rounded=0;whiteSpace=wrap;html=1;" parent="1" vertex="1">
          <mxGeometry x="360" y="440" width="90" height="20" as="geometry" />
        </mxCell>
        <mxCell id="ivFnE20wJ8bzk58zQ-_T-50" value="&lt;b&gt;DocumentPropertiesWrap&lt;/b&gt;" style="rounded=0;whiteSpace=wrap;html=1;" parent="1" vertex="1">
          <mxGeometry x="360" y="480" width="160" height="20" as="geometry" />
        </mxCell>
        <mxCell id="ivFnE20wJ8bzk58zQ-_T-52" value="&lt;div&gt;&lt;/div&gt;&lt;font color=&quot;#999999&quot;&gt;// Brings up the install printer wizard.&lt;/font&gt;" style="text;html=1;align=left;verticalAlign=middle;resizable=0;points=[];autosize=1;" parent="1" vertex="1">
          <mxGeometry x="360" y="400" width="210" height="20" as="geometry" />
        </mxCell>
        <mxCell id="ivFnE20wJ8bzk58zQ-_T-53" value="printscan/ui/printui/setup.cxx" style="text;html=1;align=left;verticalAlign=middle;resizable=0;points=[];autosize=1;" parent="1" vertex="1">
          <mxGeometry x="360" y="420" width="170" height="20" as="geometry" />
        </mxCell>
        <mxCell id="ivFnE20wJ8bzk58zQ-_T-55" value="g_pfnDocumentPropertiesWrap" style="rounded=0;whiteSpace=wrap;html=1;fillColor=#f5f5f5;strokeColor=#666666;fontColor=#333333;" parent="1" vertex="1">
          <mxGeometry x="560" y="280" width="180" height="20" as="geometry" />
        </mxCell>
        <mxCell id="ivFnE20wJ8bzk58zQ-_T-56" value="g_pfnPrinterSetup" style="rounded=0;whiteSpace=wrap;html=1;" parent="1" vertex="1">
          <mxGeometry x="560" y="260" width="120" height="20" as="geometry" />
        </mxCell>
        <mxCell id="ivFnE20wJ8bzk58zQ-_T-63" style="edgeStyle=orthogonalEdgeStyle;rounded=0;orthogonalLoop=1;jettySize=auto;html=1;strokeWidth=2;fillColor=#f8cecc;strokeColor=#b85450;" parent="1" source="ivFnE20wJ8bzk58zQ-_T-57" target="ivFnE20wJ8bzk58zQ-_T-39" edge="1">
          <mxGeometry relative="1" as="geometry">
            <Array as="points">
              <mxPoint x="700" y="850" />
              <mxPoint x="600" y="850" />
            </Array>
          </mxGeometry>
        </mxCell>
        <mxCell id="ivFnE20wJ8bzk58zQ-_T-57" value="PROPSHEETPAGE genPage" style="rounded=0;whiteSpace=wrap;html=1;fillColor=#f8cecc;strokeColor=#b85450;" parent="1" vertex="1">
          <mxGeometry x="620" y="820" width="160" height="20" as="geometry" />
        </mxCell>
        <mxCell id="ivFnE20wJ8bzk58zQ-_T-59" value="pfnDlgProc" style="edgeStyle=orthogonalEdgeStyle;rounded=0;orthogonalLoop=1;jettySize=auto;html=1;strokeWidth=2;" parent="1" source="ivFnE20wJ8bzk58zQ-_T-58" target="ivFnE20wJ8bzk58zQ-_T-57" edge="1">
          <mxGeometry relative="1" as="geometry">
            <mxPoint as="offset" />
          </mxGeometry>
        </mxCell>
        <mxCell id="ivFnE20wJ8bzk58zQ-_T-86" style="edgeStyle=orthogonalEdgeStyle;rounded=0;orthogonalLoop=1;jettySize=auto;html=1;strokeWidth=2;" parent="1" source="ivFnE20wJ8bzk58zQ-_T-58" target="ivFnE20wJ8bzk58zQ-_T-68" edge="1">
          <mxGeometry relative="1" as="geometry">
            <Array as="points">
              <mxPoint x="790" y="770" />
              <mxPoint x="790" y="1500" />
              <mxPoint x="270" y="1500" />
            </Array>
          </mxGeometry>
        </mxCell>
        <mxCell id="ivFnE20wJ8bzk58zQ-_T-58" value="&lt;b&gt;Print_GeneralDlgProc&lt;/b&gt;" style="rounded=0;whiteSpace=wrap;html=1;" parent="1" vertex="1">
          <mxGeometry x="630" y="760" width="140" height="20" as="geometry" />
        </mxCell>
        <mxCell id="ivFnE20wJ8bzk58zQ-_T-61" value="&lt;div&gt;&lt;/div&gt;&lt;font color=&quot;#999999&quot;&gt;// Pointer to the dialog box procedure for the page.&lt;/font&gt;" style="text;html=1;align=left;verticalAlign=middle;resizable=0;points=[];autosize=1;" parent="1" vertex="1">
          <mxGeometry x="630" y="740" width="280" height="20" as="geometry" />
        </mxCell>
        <mxCell id="ivFnE20wJ8bzk58zQ-_T-64" value="&lt;b&gt;_RealPropertySheet&lt;/b&gt;" style="rounded=0;whiteSpace=wrap;html=1;" parent="1" vertex="1">
          <mxGeometry x="400" y="980" width="120" height="20" as="geometry" />
        </mxCell>
        <mxCell id="ivFnE20wJ8bzk58zQ-_T-65" value="LPPROPDATA ppd" style="rounded=0;whiteSpace=wrap;html=1;fillColor=#f5f5f5;strokeColor=#666666;fontColor=#333333;" parent="1" vertex="1">
          <mxGeometry x="520" y="980" width="120" height="20" as="geometry" />
        </mxCell>
        <mxCell id="ivFnE20wJ8bzk58zQ-_T-67" value="shell/comctl32/v6/prsht.c: 4757~5088" style="text;html=1;align=left;verticalAlign=middle;resizable=0;points=[];autosize=1;" parent="1" vertex="1">
          <mxGeometry x="400" y="960" width="210" height="20" as="geometry" />
        </mxCell>
        <mxCell id="ivFnE20wJ8bzk58zQ-_T-68" value="&lt;b&gt;Print_GeneralDlgProc&lt;/b&gt;" style="rounded=0;whiteSpace=wrap;html=1;" parent="1" vertex="1">
          <mxGeometry x="200" y="1520" width="140" height="20" as="geometry" />
        </mxCell>
        <mxCell id="ivFnE20wJ8bzk58zQ-_T-69" value="shell/comdlg32/printnew.cpp: 1011~1229" style="text;html=1;align=left;verticalAlign=middle;resizable=0;points=[];autosize=1;" parent="1" vertex="1">
          <mxGeometry x="200" y="1500" width="230" height="20" as="geometry" />
        </mxCell>
        <mxCell id="ivFnE20wJ8bzk58zQ-_T-70" value="..." style="rounded=0;whiteSpace=wrap;html=1;" parent="1" vertex="1">
          <mxGeometry x="340" y="1520" width="40" height="20" as="geometry" />
        </mxCell>
        <mxCell id="ivFnE20wJ8bzk58zQ-_T-72" value="&lt;div&gt;&lt;/div&gt;&lt;font color=&quot;#999999&quot;&gt;/// 我不知道这个是异步调用的还是在同一个线程里阻塞调用的，所以先放在这里吧&lt;/font&gt;" style="text;html=1;align=left;verticalAlign=middle;resizable=0;points=[];autosize=1;" parent="1" vertex="1">
          <mxGeometry x="200" y="1480" width="450" height="20" as="geometry" />
        </mxCell>
        <mxCell id="ivFnE20wJ8bzk58zQ-_T-73" value="CPrintBrowser::&lt;b&gt;OnCommandMessage&lt;/b&gt;" style="rounded=0;whiteSpace=wrap;html=1;" parent="1" vertex="1">
          <mxGeometry x="240" y="1560" width="220" height="20" as="geometry" />
        </mxCell>
        <mxCell id="ivFnE20wJ8bzk58zQ-_T-74" value="WPARAM wParam" style="rounded=0;whiteSpace=wrap;html=1;" parent="1" vertex="1">
          <mxGeometry x="460" y="1560" width="120" height="20" as="geometry" />
        </mxCell>
        <mxCell id="ivFnE20wJ8bzk58zQ-_T-75" value="LPARAM lParam" style="rounded=0;whiteSpace=wrap;html=1;" parent="1" vertex="1">
          <mxGeometry x="580" y="1560" width="100" height="20" as="geometry" />
        </mxCell>
        <mxCell id="ivFnE20wJ8bzk58zQ-_T-76" value="shell/comdlg32/printnew.cpp: 3784~3945" style="text;html=1;align=left;verticalAlign=middle;resizable=0;points=[];autosize=1;" parent="1" vertex="1">
          <mxGeometry x="240" y="1540" width="230" height="20" as="geometry" />
        </mxCell>
        <mxCell id="ivFnE20wJ8bzk58zQ-_T-77" value="&lt;b&gt;DocumentPropertiesWrap&lt;/b&gt;" style="rounded=0;whiteSpace=wrap;html=1;" parent="1" vertex="1">
          <mxGeometry x="280" y="1600" width="160" height="20" as="geometry" />
        </mxCell>
        <mxCell id="ivFnE20wJ8bzk58zQ-_T-78" value="" style="shape=link;html=1;strokeWidth=1;" parent="1" source="ivFnE20wJ8bzk58zQ-_T-49" target="ivFnE20wJ8bzk58zQ-_T-56" edge="1">
          <mxGeometry width="100" relative="1" as="geometry">
            <mxPoint x="610" y="430" as="sourcePoint" />
            <mxPoint x="710" y="430" as="targetPoint" />
            <Array as="points">
              <mxPoint x="530" y="450" />
              <mxPoint x="530" y="270" />
            </Array>
          </mxGeometry>
        </mxCell>
        <mxCell id="ivFnE20wJ8bzk58zQ-_T-79" value="" style="shape=link;html=1;strokeWidth=1;" parent="1" source="ivFnE20wJ8bzk58zQ-_T-50" target="ivFnE20wJ8bzk58zQ-_T-55" edge="1">
          <mxGeometry width="100" relative="1" as="geometry">
            <mxPoint x="520" y="470" as="sourcePoint" />
            <mxPoint x="670" y="140" as="targetPoint" />
            <Array as="points">
              <mxPoint x="550" y="490" />
              <mxPoint x="550" y="290" />
            </Array>
          </mxGeometry>
        </mxCell>
        <mxCell id="ivFnE20wJ8bzk58zQ-_T-83" value="printscan/ui/printui/docprop.cxx" style="text;html=1;align=left;verticalAlign=middle;resizable=0;points=[];autosize=1;" parent="1" vertex="1">
          <mxGeometry x="360" y="460" width="180" height="20" as="geometry" />
        </mxCell>
        <mxCell id="ivFnE20wJ8bzk58zQ-_T-84" value="..." style="rounded=0;whiteSpace=wrap;html=1;" parent="1" vertex="1">
          <mxGeometry x="440" y="1600" width="40" height="20" as="geometry" />
        </mxCell>
        <mxCell id="ivFnE20wJ8bzk58zQ-_T-85" value="&lt;div&gt;&lt;/div&gt;&lt;font color=&quot;#999999&quot;&gt;/// 窗口信息、选择的打印机信息&lt;/font&gt;" style="text;html=1;align=left;verticalAlign=middle;resizable=0;points=[];autosize=1;" parent="1" vertex="1">
          <mxGeometry x="480" y="1600" width="190" height="20" as="geometry" />
        </mxCell>
        <mxCell id="6d01X6L-va19u9z8ksLD-2" value="&lt;b&gt;PageSetupDlg(W)&lt;/b&gt;" style="rounded=0;whiteSpace=wrap;html=1;" parent="1" vertex="1">
          <mxGeometry x="280" y="240" width="120" height="20" as="geometry" />
        </mxCell>
        <mxCell id="6d01X6L-va19u9z8ksLD-3" value="LPPAGESETUPDLG pPSD" style="rounded=0;whiteSpace=wrap;html=1;" parent="1" vertex="1">
          <mxGeometry x="400" y="240" width="160" height="20" as="geometry" />
        </mxCell>
        <mxCell id="6d01X6L-va19u9z8ksLD-4" value="&lt;b&gt;PageSetupDlgX&lt;/b&gt;" style="rounded=0;whiteSpace=wrap;html=1;" parent="1" vertex="1">
          <mxGeometry x="280" y="-240" width="100" height="20" as="geometry" />
        </mxCell>
        <mxCell id="6d01X6L-va19u9z8ksLD-5" value="PRINTINFO pPI" style="rounded=0;whiteSpace=wrap;html=1;" parent="1" vertex="1">
          <mxGeometry x="380" y="-240" width="100" height="20" as="geometry" />
        </mxCell>
        <mxCell id="6d01X6L-va19u9z8ksLD-6" value="srv03rtm/shell/comdlg32/prnsetup.c: 856~1050" style="text;html=1;align=left;verticalAlign=middle;resizable=0;points=[];autosize=1;" parent="1" vertex="1">
          <mxGeometry x="280" y="-260" width="270" height="20" as="geometry" />
        </mxCell>
        <mxCell id="6d01X6L-va19u9z8ksLD-7" value="srv03rtm/shell/comdlg32/prnsetup.c: 824~841" style="text;html=1;align=left;verticalAlign=middle;resizable=0;points=[];autosize=1;" parent="1" vertex="1">
          <mxGeometry x="280" y="220" width="260" height="20" as="geometry" />
        </mxCell>
        <mxCell id="6d01X6L-va19u9z8ksLD-9" value="&lt;b&gt;PrintDlgX&lt;/b&gt;" style="rounded=0;whiteSpace=wrap;html=1;" parent="1" vertex="1">
          <mxGeometry x="320" y="-200" width="60" height="20" as="geometry" />
        </mxCell>
        <mxCell id="6d01X6L-va19u9z8ksLD-10" value="PRINTINFO pPI" style="rounded=0;whiteSpace=wrap;html=1;" parent="1" vertex="1">
          <mxGeometry x="380" y="-200" width="100" height="20" as="geometry" />
        </mxCell>
        <mxCell id="6d01X6L-va19u9z8ksLD-11" value="1029: srv03rtm/shell/comdlg32/prnsetup.c: 250~719" style="text;html=1;align=left;verticalAlign=middle;resizable=0;points=[];autosize=1;" parent="1" vertex="1">
          <mxGeometry x="320" y="-220" width="290" height="20" as="geometry" />
        </mxCell>
        <mxCell id="6d01X6L-va19u9z8ksLD-12" value="&lt;b&gt;PrintDisplaySetupDlg&lt;/b&gt;" style="rounded=0;whiteSpace=wrap;html=1;" parent="1" vertex="1">
          <mxGeometry x="360" y="80" width="140" height="20" as="geometry" />
        </mxCell>
        <mxCell id="6d01X6L-va19u9z8ksLD-13" value="PRINTINFO pPI" style="rounded=0;whiteSpace=wrap;html=1;" parent="1" vertex="1">
          <mxGeometry x="500" y="80" width="100" height="20" as="geometry" />
        </mxCell>
        <mxCell id="6d01X6L-va19u9z8ksLD-14" value="srv03rtm/shell/comdlg32/prnsetup.c: 1254~1365" style="text;html=1;align=left;verticalAlign=middle;resizable=0;points=[];autosize=1;" parent="1" vertex="1">
          <mxGeometry x="360" y="60" width="270" height="20" as="geometry" />
        </mxCell>
        <mxCell id="6d01X6L-va19u9z8ksLD-15" value="&lt;b&gt;DialogBoxIndirectParamAorW&lt;/b&gt;" style="rounded=0;whiteSpace=wrap;html=1;" parent="1" vertex="1">
          <mxGeometry x="400" y="120" width="180" height="20" as="geometry" />
        </mxCell>
        <mxCell id="kIJAXJC-tuBJoFDmvVhd-2" value="&lt;b&gt;DocumentProperties&lt;/b&gt;" style="rounded=0;whiteSpace=wrap;html=1;" vertex="1" parent="1">
          <mxGeometry x="360" y="-160" width="120" height="20" as="geometry" />
        </mxCell>
        <mxCell id="kIJAXJC-tuBJoFDmvVhd-3" value="525: srv03rtm/printscan/print/spooler/spoolss/client/winspool.c: 5793~5913" style="text;html=1;align=left;verticalAlign=middle;resizable=0;points=[];autosize=1;" vertex="1" parent="1">
          <mxGeometry x="360" y="-180" width="410" height="20" as="geometry" />
        </mxCell>
        <mxCell id="kIJAXJC-tuBJoFDmvVhd-4" value="load tinypdf2.dll" style="text;html=1;align=right;verticalAlign=middle;resizable=0;points=[];autosize=1;" vertex="1" parent="1">
          <mxGeometry x="260" y="-160" width="100" height="20" as="geometry" />
        </mxCell>
        <mxCell id="kIJAXJC-tuBJoFDmvVhd-5" value="load tinypdf.dll&lt;br&gt;load tinypdf1.dll" style="text;html=1;align=right;verticalAlign=middle;resizable=0;points=[];autosize=1;" vertex="1" parent="1">
          <mxGeometry x="260" y="80" width="100" height="30" as="geometry" />
        </mxCell>
        <mxCell id="kIJAXJC-tuBJoFDmvVhd-8" value="..." style="rounded=0;whiteSpace=wrap;html=1;" vertex="1" parent="1">
          <mxGeometry x="480" y="-160" width="40" height="20" as="geometry" />
        </mxCell>
        <mxCell id="kIJAXJC-tuBJoFDmvVhd-9" value="&lt;b&gt;PageSetupDlg(W)&lt;/b&gt;" style="rounded=0;whiteSpace=wrap;html=1;" vertex="1" parent="1">
          <mxGeometry x="240" y="-280" width="120" height="20" as="geometry" />
        </mxCell>
        <mxCell id="kIJAXJC-tuBJoFDmvVhd-10" value="LPPAGESETUPDLG pPSD" style="rounded=0;whiteSpace=wrap;html=1;" vertex="1" parent="1">
          <mxGeometry x="360" y="-280" width="160" height="20" as="geometry" />
        </mxCell>
        <mxCell id="kIJAXJC-tuBJoFDmvVhd-11" value="srv03rtm/shell/comdlg32/prnsetup.c: 824~841" style="text;html=1;align=left;verticalAlign=middle;resizable=0;points=[];autosize=1;" vertex="1" parent="1">
          <mxGeometry x="240" y="-300" width="260" height="20" as="geometry" />
        </mxCell>
        <mxCell id="kIJAXJC-tuBJoFDmvVhd-12" value="" style="shape=link;html=1;" edge="1" parent="1" source="kIJAXJC-tuBJoFDmvVhd-9" target="6d01X6L-va19u9z8ksLD-2">
          <mxGeometry width="100" relative="1" as="geometry">
            <mxPoint x="170" y="250" as="sourcePoint" />
            <mxPoint x="270" y="250" as="targetPoint" />
            <Array as="points">
              <mxPoint x="230" y="-270" />
              <mxPoint x="230" y="250" />
            </Array>
          </mxGeometry>
        </mxCell>
        <mxCell id="kIJAXJC-tuBJoFDmvVhd-13" value="&lt;b&gt;DocumentPropertySheets&lt;/b&gt;" style="rounded=0;whiteSpace=wrap;html=1;" vertex="1" parent="1">
          <mxGeometry x="400" y="-120" width="160" height="20" as="geometry" />
        </mxCell>
        <mxCell id="kIJAXJC-tuBJoFDmvVhd-14" value="5892: srv03rtm/printscan/print/spooler/spoolss/client/prop.c: 451~611" style="text;html=1;align=left;verticalAlign=middle;resizable=0;points=[];autosize=1;" vertex="1" parent="1">
          <mxGeometry x="400" y="-140" width="380" height="20" as="geometry" />
        </mxCell>
        <mxCell id="kIJAXJC-tuBJoFDmvVhd-15" value="..." style="rounded=0;whiteSpace=wrap;html=1;" vertex="1" parent="1">
          <mxGeometry x="560" y="-120" width="40" height="20" as="geometry" />
        </mxCell>
        <mxCell id="kIJAXJC-tuBJoFDmvVhd-16" value="&lt;b&gt;LoadPrinterDriver&lt;/b&gt;" style="rounded=0;whiteSpace=wrap;html=1;" vertex="1" parent="1">
          <mxGeometry x="440" y="-80" width="120" height="20" as="geometry" />
        </mxCell>
        <mxCell id="kIJAXJC-tuBJoFDmvVhd-17" value="590: srv03rtm/printscan/print/spooler/spoolss/client/winspool.c: 5693~5727" style="text;html=1;align=left;verticalAlign=middle;resizable=0;points=[];autosize=1;" vertex="1" parent="1">
          <mxGeometry x="440" y="-100" width="410" height="20" as="geometry" />
        </mxCell>
        <mxCell id="kIJAXJC-tuBJoFDmvVhd-18" value="..." style="rounded=0;whiteSpace=wrap;html=1;" vertex="1" parent="1">
          <mxGeometry x="560" y="-80" width="40" height="20" as="geometry" />
        </mxCell>
        <mxCell id="kIJAXJC-tuBJoFDmvVhd-19" value="" style="rounded=0;whiteSpace=wrap;html=1;" vertex="1" parent="1">
          <mxGeometry x="480" y="-40" width="120" height="60" as="geometry" />
        </mxCell>
      </root>
    </mxGraphModel>
  </diagram>
</mxfile>
